<svg width="15" height="17" viewBox="0 0 15 17" fill="none" xmlns="http://www.w3.org/2000/svg">
<path opacity="0.4" fill-rule="evenodd" clip-rule="evenodd" d="M0 2.01923C0 0.904039 0.904039 0 2.01923 0H4.90385C5.38178 0 5.76923 0.38745 5.76923 0.865385C5.76923 1.34332 5.38178 1.73077 4.90385 1.73077H2.01923C1.85992 1.73077 1.73077 1.85992 1.73077 2.01923V14.1346C1.73077 14.294 1.85992 14.4231 2.01923 14.4231H4.90385C5.38178 14.4231 5.76923 14.8105 5.76923 15.2885C5.76923 15.7664 5.38178 16.1538 4.90385 16.1538H2.01923C0.904039 16.1538 0 15.2498 0 14.1346V2.01923ZM7.56999 7.21154L9.84265 4.93884C10.1806 4.60089 10.1806 4.05295 9.84265 3.715C9.50469 3.37705 8.9568 3.37705 8.61885 3.715L4.86885 7.465C4.5309 7.80295 4.5309 8.35089 4.86885 8.68884L8.61885 12.4388C8.9568 12.7768 9.50469 12.7768 9.84265 12.4388C10.1806 12.1008 10.1806 11.553 9.84265 11.215L7.56999 8.94231H14.1346C14.6125 8.94231 15 8.55486 15 8.07692C15 7.59898 14.6125 7.21154 14.1346 7.21154H7.56999Z" fill="#01008A"/>
</svg>
